<svg xmlns="http://www.w3.org/2000/svg" version="1.1" xmlns:xlink="http://www.w3.org/1999/xlink" xmlns:svgjs="http://svgjs.com/svgjs" width="1000" height="1000"><rect width="1000" height="1000" rx="200" ry="200" fill="#be4bdb"></rect><g transform="matrix(33.333333333333336,0,0,33.333333333333336,100,100)"><svg xmlns="http://www.w3.org/2000/svg" version="1.1" xmlns:xlink="http://www.w3.org/1999/xlink" xmlns:svgjs="http://svgjs.com/svgjs" width="24" height="24"><svg xmlns="http://www.w3.org/2000/svg" class="icon icon-tabler icon-tabler-building-estate" width="24" height="24" viewBox="0 0 24 24" stroke-width="2" stroke="currentColor" fill="none" stroke-linecap="round" stroke-linejoin="round">
  <path stroke="none" d="M0 0h24v24H0z" fill="none"></path>
  <path d="M3 21h18"></path>
  <path d="M19 21v-4"></path>
  <path d="M19 17a2 2 0 0 0 2 -2v-2a2 2 0 1 0 -4 0v2a2 2 0 0 0 2 2z"></path>
  <path d="M14 21v-14a3 3 0 0 0 -3 -3h-4a3 3 0 0 0 -3 3v14"></path>
  <path d="M9 17v4"></path>
  <path d="M8 13h2"></path>
  <path d="M8 9h2"></path>
</svg></svg></g></svg>